<?xml version="1.0" encoding="utf-8"?>
<!-- Generator: Adobe Illustrator 24.1.1, SVG Export Plug-In . SVG Version: 6.00 Build 0)  -->
<svg version="1.1" id="Layer_1" xmlns="http://www.w3.org/2000/svg" xmlns:xlink="http://www.w3.org/1999/xlink" x="0px" y="0px"
	 viewBox="0 0 512 512" style="enable-background:new 0 0 512 512;" xml:space="preserve">
<style type="text/css">
	.st0{fill:#FF9933;}
	.st1{fill:#FFFFFF;}
	.st2{fill:#128807;}
	.st3{fill:#000088;}
</style>
<g>
	<rect y="64" class="st0" width="512" height="128"/>
	<rect y="192" class="st1" width="512" height="128"/>
	<rect y="320" class="st2" width="512" height="128"/>
	<circle class="st3" cx="256" cy="256" r="51.2"/>
	<circle class="st1" cx="256" cy="256" r="44.8"/>
	<circle class="st3" cx="256" cy="256" r="9"/>
	<path class="st3" d="M300.7,259.6c1.2,0.2,2.1,1.3,1.9,2.5c-0.2,1.2-1.3,2.1-2.5,1.9c-1.2-0.2-2.1-1.3-1.9-2.5
		C298.4,260.3,299.5,259.5,300.7,259.6z"/>
	<polygon class="st3" points="256,300.8 257.5,273.9 256,261.1 254.5,273.9 	"/>
	<path class="st3" d="M298.2,271.1c1.1,0.5,1.7,1.8,1.2,2.9c-0.5,1.1-1.8,1.7-2.9,1.2c-1.1-0.5-1.7-1.8-1.2-2.9
		C295.8,271.1,297.1,270.6,298.2,271.1z"/>
	<polygon class="st3" points="244.4,299.3 252.8,273.7 254.7,260.9 249.9,272.9 	"/>
	<path class="st3" d="M292.9,281.5c1,0.8,1.2,2.2,0.4,3.1c-0.8,1-2.2,1.2-3.1,0.4c-1-0.8-1.2-2.2-0.4-3.1
		C290.5,280.9,291.9,280.7,292.9,281.5z"/>
	<polygon class="st3" points="233.6,294.8 248.4,272.3 253.4,260.4 245.7,270.8 	"/>
	<path class="st3" d="M285,290.2c0.8,1,0.6,2.4-0.4,3.1c-1,0.8-2.4,0.6-3.1-0.4c-0.8-1-0.6-2.4,0.4-3.1
		C282.9,289,284.3,289.2,285,290.2z"/>
	<polygon class="st3" points="224.3,287.7 244.4,269.8 252.4,259.6 242.2,267.6 	"/>
	<path class="st3" d="M275.2,296.5c0.5,1.1-0.1,2.5-1.2,2.9c-1.1,0.5-2.5-0.1-2.9-1.2c-0.5-1.1,0.1-2.5,1.2-2.9
		S274.7,295.4,275.2,296.5z"/>
	<polygon class="st3" points="217.2,278.4 241.2,266.3 251.6,258.6 239.7,263.6 	"/>
	<path class="st3" d="M264.1,300.1c0.2,1.2-0.7,2.4-1.9,2.5c-1.2,0.2-2.4-0.7-2.5-1.9c-0.2-1.2,0.7-2.4,1.9-2.5
		C262.8,298,263.9,298.9,264.1,300.1z"/>
	<polygon class="st3" points="212.7,267.6 239.1,262.1 251.1,257.3 238.3,259.2 	"/>
	<path class="st3" d="M252.4,300.7c-0.2,1.2-1.3,2.1-2.5,1.9c-1.2-0.2-2.1-1.3-1.9-2.5c0.2-1.2,1.3-2.1,2.5-1.9
		C251.7,298.4,252.5,299.5,252.4,300.7z"/>
	<polygon class="st3" points="211.2,256 238.1,257.5 250.9,256 238.1,254.5 	"/>
	<path class="st3" d="M240.9,298.2c-0.5,1.1-1.8,1.7-2.9,1.2c-1.1-0.5-1.7-1.8-1.2-2.9s1.8-1.7,2.9-1.2S241.4,297.1,240.9,298.2z"/>
	<polygon class="st3" points="212.7,244.4 238.3,252.8 251.1,254.7 239.1,249.9 	"/>
	<path class="st3" d="M230.5,292.9c-0.8,1-2.2,1.2-3.1,0.4c-1-0.8-1.2-2.2-0.4-3.1c0.8-1,2.2-1.2,3.1-0.4
		C231.1,290.5,231.3,291.9,230.5,292.9z"/>
	<polygon class="st3" points="217.2,233.6 239.7,248.4 251.6,253.4 241.2,245.7 	"/>
	<path class="st3" d="M221.8,285c-1,0.8-2.4,0.6-3.1-0.4c-0.8-1-0.6-2.4,0.4-3.1c1-0.8,2.4-0.6,3.1,0.4
		C223,282.9,222.8,284.3,221.8,285z"/>
	<polygon class="st3" points="224.3,224.3 242.2,244.4 252.4,252.4 244.4,242.2 	"/>
	<path class="st3" d="M215.5,275.2c-1.1,0.5-2.5-0.1-2.9-1.2c-0.5-1.1,0.1-2.5,1.2-2.9c1.1-0.5,2.5,0.1,2.9,1.2
		C217.2,273.4,216.6,274.7,215.5,275.2z"/>
	<polygon class="st3" points="233.6,217.2 245.7,241.2 253.4,251.6 248.4,239.7 	"/>
	<path class="st3" d="M211.9,264.1c-1.2,0.2-2.4-0.7-2.5-1.9c-0.2-1.2,0.7-2.4,1.9-2.5c1.2-0.2,2.4,0.7,2.5,1.9
		C214,262.8,213.1,263.9,211.9,264.1z"/>
	<polygon class="st3" points="244.4,212.7 249.9,239.1 254.7,251.1 252.8,238.3 	"/>
	<path class="st3" d="M211.3,252.4c-1.2-0.2-2.1-1.3-1.9-2.5c0.2-1.2,1.3-2.1,2.5-1.9c1.2,0.2,2.1,1.3,1.9,2.5
		C213.6,251.7,212.5,252.5,211.3,252.4z"/>
	<polygon class="st3" points="256,211.2 254.5,238.1 256,250.9 257.5,238.1 	"/>
	<path class="st3" d="M213.8,240.9c-1.1-0.5-1.7-1.8-1.2-2.9c0.5-1.1,1.8-1.7,2.9-1.2c1.1,0.5,1.7,1.8,1.2,2.9
		C216.2,240.9,214.9,241.4,213.8,240.9z"/>
	<polygon class="st3" points="267.6,212.7 259.2,238.3 257.3,251.1 262.1,239.1 	"/>
	<path class="st3" d="M219.1,230.5c-1-0.8-1.2-2.2-0.4-3.1c0.8-1,2.2-1.2,3.1-0.4c1,0.8,1.2,2.2,0.4,3.1
		C221.5,231.1,220.1,231.3,219.1,230.5z"/>
	<polygon class="st3" points="278.4,217.2 263.6,239.7 258.6,251.6 266.3,241.2 	"/>
	<path class="st3" d="M227,221.8c-0.8-1-0.6-2.4,0.4-3.1c1-0.8,2.4-0.6,3.1,0.4c0.8,1,0.6,2.4-0.4,3.1
		C229.1,223,227.7,222.8,227,221.8z"/>
	<polygon class="st3" points="287.7,224.3 267.6,242.2 259.6,252.4 269.8,244.4 	"/>
	<path class="st3" d="M236.8,215.5c-0.5-1.1,0.1-2.5,1.2-2.9c1.1-0.5,2.5,0.1,2.9,1.2c0.5,1.1-0.1,2.5-1.2,2.9
		C238.6,217.2,237.3,216.6,236.8,215.5z"/>
	<polygon class="st3" points="294.8,233.6 270.8,245.7 260.4,253.4 272.3,248.4 	"/>
	<path class="st3" d="M247.9,211.9c-0.2-1.2,0.7-2.4,1.9-2.5c1.2-0.2,2.4,0.7,2.5,1.9c0.2,1.2-0.7,2.4-1.9,2.5
		C249.2,214,248.1,213.1,247.9,211.9z"/>
	<polygon class="st3" points="299.3,244.4 272.9,249.9 260.9,254.7 273.7,252.8 	"/>
	<path class="st3" d="M259.6,211.3c0.2-1.2,1.3-2.1,2.5-1.9c1.2,0.2,2.1,1.3,1.9,2.5c-0.2,1.2-1.3,2.1-2.5,1.9
		C260.3,213.6,259.5,212.5,259.6,211.3z"/>
	<polygon class="st3" points="300.8,256 273.9,254.5 261.1,256 273.9,257.5 	"/>
	<path class="st3" d="M271.1,213.8c0.5-1.1,1.8-1.7,2.9-1.2c1.1,0.5,1.7,1.8,1.2,2.9c-0.5,1.1-1.8,1.7-2.9,1.2
		C271.1,216.2,270.6,214.9,271.1,213.8z"/>
	<polygon class="st3" points="299.3,267.6 273.7,259.2 260.9,257.3 272.9,262.1 	"/>
	<path class="st3" d="M281.5,219.1c0.8-1,2.2-1.2,3.1-0.4c1,0.8,1.2,2.2,0.4,3.1c-0.8,1-2.2,1.2-3.1,0.4
		C280.9,221.5,280.7,220.1,281.5,219.1z"/>
	<polygon class="st3" points="294.8,278.4 272.3,263.6 260.4,258.6 270.8,266.3 	"/>
	<path class="st3" d="M290.2,226.9c1-0.8,2.4-0.6,3.1,0.4c0.8,1,0.6,2.4-0.4,3.1c-1,0.8-2.4,0.6-3.1-0.4
		C289,229.1,289.2,227.7,290.2,226.9z"/>
	<polygon class="st3" points="287.7,287.7 269.8,267.6 259.6,259.6 267.6,269.8 	"/>
	<path class="st3" d="M296.5,236.8c1.1-0.5,2.5,0.1,2.9,1.2c0.5,1.1-0.1,2.5-1.2,2.9c-1.1,0.5-2.5-0.1-2.9-1.2
		C294.8,238.6,295.4,237.3,296.5,236.8z"/>
	<polygon class="st3" points="278.4,294.8 266.3,270.8 258.6,260.4 263.6,272.3 	"/>
	<path class="st3" d="M300.1,247.9c1.2-0.2,2.4,0.7,2.5,1.9c0.2,1.2-0.7,2.4-1.9,2.5c-1.2,0.2-2.4-0.7-2.5-1.9
		C298,249.2,298.9,248.1,300.1,247.9z"/>
	<polygon class="st3" points="267.6,299.3 262.1,272.9 257.3,260.9 259.2,273.7 	"/>
</g>
</svg>
